<svg id="Layer_7" data-name="Layer 7" xmlns="http://www.w3.org/2000/svg" viewBox="0 0 500 500"><defs><style>.cls-1{fill:#17568b;}.cls-2{fill:#006cb7;}.cls-3{fill:#0077c0;}.cls-4{fill:none;}.cls-5{fill:#ec008c;}.cls-6{fill:#008dd0;}</style></defs><path class="cls-1" d="M488.79,479l-3.51-75.67a55.93,55.93,0,0,1-27.63-2c-23.74-7.92-20-23.45-45.17-31.74-21.5-7.1-28.81,2.73-66.54-3.06-22.94-3.52-20.8-7.23-33-6.71-28.71,1.23-35.69,21.72-62.26,22-12.33.11-21.28-4.2-36.63-11.6-29.32-14.14-34-29-51.28-28.09-11.07.57-11.41,6.8-29.91,10.38-16.27,3.16-20.14-.85-30.53,1.22-22.31,4.47-23.89,26.86-45.78,43.35C41,408.84,27.47,408.29,14.42,408.77L11.21,477.9C21.24,477.59,433.83,479,488.79,479Z"/><path class="cls-2" d="M56.58,397.11c21.89-16.49,23.47-38.88,45.78-43.35,10.39-2.07,14.26,1.94,30.53-1.22,18.5-3.58,18.84-9.81,29.91-10.38,17.24-.87,22,13.95,51.28,28.09,15.35,7.4,24.3,11.71,36.63,11.6,26.57-.26,33.55-20.75,62.26-22,12.17-.52,10,3.19,33,6.71,37.73,5.79,45-4,66.54,3.06,25.14,8.29,21.43,23.82,45.17,31.74a55.93,55.93,0,0,0,27.63,2l-1.81-38.81c-6.78.92-15.27,1.93-27.65-1.61-17.84-5.1-18.4-12.44-42.73-23.2-10.5-4.64-25.37-11.21-43.34-11.6-17.16-.36-24.87,5.18-45.79,12.21-22.55,7.59-53.77,18.09-84.24,12.82-31.69-5.47-28.05-22-59.22-27.47-35.74-6.24-69.87,10.41-86.07,18.32-25.51,12.44-26.86,20.19-47,25a68.88,68.88,0,0,1-31.18.58l-1.82,39.16C27.47,408.29,41,408.84,56.58,397.11Z"/><path class="cls-3" d="M47.42,369c20.15-4.84,21.5-12.59,47-25,16.2-7.91,50.33-24.56,86.07-18.32,31.17,5.44,27.53,22,59.22,27.47,30.47,5.27,61.69-5.23,84.24-12.82,20.92-7,28.63-12.57,45.79-12.21,18,.39,32.84,7,43.34,11.6,24.33,10.76,24.89,18.1,42.73,23.2,12.38,3.54,20.87,2.53,27.65,1.61L483,353.42c-5.28.38-11.1,1.51-20.88-.72-23.8-5.45-30.59-21.67-49.91-36.17-25.06-18.82-63.11-28.67-93.4-20.61-32.49,8.65-34,32.06-64.55,34.34-17.79,1.33-17.66-6.58-54-13.28-21.18-3.9-42.49-7.61-66.39-1.37-19.82,5.17-24,12.63-41.66,20.6-28.86,13-56.09,10.42-74.73,8.17l-1.17,25.23A68.88,68.88,0,0,0,47.42,369Z"/><path class="cls-4" d="M318.77,295.92a65.08,65.08,0,0,0-14.31,5.63c24.27,4.34,24.35,7.27,40.87,8.11,21.35,1.08,33.36-3.18,43.43-6.42C366.58,293.72,340.67,290.09,318.77,295.92Z"/><path class="cls-5" d="M109.53,308.74c23.74-3.59,27-1.2,54.95-3.66,40.29-3.55,38.92-9,68.22-10.07,24.17-.9,43.8,2.12,62.72,5,3.39.52,6.33,1,9,1.51a65.08,65.08,0,0,1,14.31-5.63c21.9-5.83,47.81-2.2,70,7.32,9.22-3,16.82-5.07,28.45-1.37,23.88,7.61,25.38,27.1,52.65,32.51a47.52,47.52,0,0,0,12.25.92L467.5,21H368.22L251,236.8,131,21H32.44L19.28,304.27C30,309,42.64,317.13,64.67,317,80.16,316.88,82.68,312.81,109.53,308.74Z"/><path class="cls-6" d="M469.86,334.38c-27.27-5.41-28.77-24.9-52.65-32.51-11.63-3.7-19.23-1.59-28.45,1.37a114.21,114.21,0,0,1,23.41,13.29c19.32,14.5,26.11,30.72,49.91,36.17,9.78,2.23,15.6,1.1,20.88.72l-.85-18.12A47.52,47.52,0,0,1,469.86,334.38Z"/><path class="cls-6" d="M92.14,336.21c17.68-8,21.84-15.43,41.66-20.6,23.9-6.24,45.21-2.53,66.39,1.37,36.37,6.7,36.24,14.61,54,13.28,25.27-1.89,30.72-18.23,50.24-28.71-2.71-.49-5.65-1-9-1.51-18.92-2.91-38.55-5.93-62.72-5-29.3,1.08-27.93,6.52-68.22,10.07-27.95,2.46-31.21.07-54.95,3.66-26.85,4.07-29.37,8.14-44.86,8.24-22,.15-34.72-8-45.39-12.71l-1.87,40.11C36.05,346.63,63.28,349.23,92.14,336.21Z"/></svg>